<svg role="img" viewBox="0 0 64 64" xmlns="http://www.w3.org/2000/svg" id="Mulesoft--Streamline-Simple-Icons" height="64" width="64">
  <desc>
    Mulesoft Streamline Icon: https://streamlinehq.com
  </desc>
  <title>Mulesoft</title>
  <path d="M32 0C14.328 0 0 14.328 0 32c0 17.674666666666667 14.328 32 32 32 17.674666666666667 0 32 -14.328 32 -32S49.672 0 32 0zm0 2.813333333333333c16.119999999999997 0 29.186666666666667 13.066666666666666 29.186666666666667 29.186666666666667S48.120000000000005 61.18666666666667 32 61.18666666666667 2.813333333333333 48.120000000000005 2.813333333333333 32c0 -16.11733333333333 13.066666666666666 -29.186666666666667 29.186666666666667 -29.186666666666667zM19.546666666666667 11.637333333333332s-7.981333333333333 4.3919999999999995 -10.559999999999999 14c-1.7253333333333334 5.930666666666667 -1.04 12.538666666666666 2.408 18.43733333333333a23.885333333333335 23.885333333333335 0 0 0 10.533333333333333 9.589333333333332l2.1386666666666665 -8.165333333333333c-4.802666666666666 -2.2666666666666666 -8.293333333333333 -6.856 -8.293333333333333 -12.773333333333333a15.058666666666667 15.058666666666667 0 0 1 2.5146666666666664 -8.376l10.005333333333333 15.642666666666665h7.445333333333332l10.008 -15.642666666666665a15.058666666666667 15.058666666666667 0 0 1 2.5146666666666664 8.373333333333333c0 5.92 -3.488 10.506666666666666 -8.290666666666667 12.776l2.1386666666666665 8.165333333333333a23.885333333333335 23.885333333333335 0 0 0 10.527999999999999 -9.584c3.4506666666666668 -5.9013333333333335 4.135999999999999 -12.512 2.4106666666666667 -18.442666666666668l0.005333333333333333 0.008c-2.5759999999999996 -9.608 -10.559999999999999 -14.002666666666666 -10.559999999999999 -14.002666666666666l-0.896 1.4053333333333333 -11.576 18.12533333333333h-0.008L20.415999999999997 13.002666666666666z" fill="#ff980080" stroke-width="2.6667"></path>
</svg>